<svg xmlns="http://www.w3.org/2000/svg" width="20" height="20" fill="none" viewBox="0 0 20 20">
  <g clip-path="url(#a)">
    <path fill="#425466" d="M11.623.732a.665.665 0 0 0-.706.08L4.432 6H1.333C.6 6 0 6.6 0 7.334v5.333C0 13.403.599 14 1.333 14h3.099l6.484 5.188a.673.673 0 0 0 .707.079.666.666 0 0 0 .377-.6V1.334a.669.669 0 0 0-.377-.602Zm3.752 4.554a.668.668 0 0 0-.943.005.669.669 0 0 0 .005.944A5.246 5.246 0 0 1 16 10a5.247 5.247 0 0 1-1.563 3.766.667.667 0 0 0 .938.946A6.557 6.557 0 0 0 17.333 10a6.567 6.567 0 0 0-1.958-4.714Z"/>
    <path fill="#425466" d="M17.256 3.407a.668.668 0 0 0-.94.947A7.894 7.894 0 0 1 18.666 10a7.89 7.89 0 0 1-2.35 5.646.67.67 0 0 0-.004.944.67.67 0 0 0 .944.002A9.209 9.209 0 0 0 20 10a9.214 9.214 0 0 0-2.744-6.593Z"/>
  </g>
  <defs>
    <clipPath id="a">
      <path fill="#fff" d="M0 0h20v20H0z"/>
    </clipPath>
  </defs>
</svg>
