<svg xmlns="http://www.w3.org/2000/svg" width="20" height="20" fill="none" viewBox="0 0 20 20">
  <path fill="#425466" d="M17.474 14.107c-1.199-1.053-1.873-2.614-1.873-4.292V7.512c0-2.927-2.099-5.346-4.796-5.775V.839a.857.857 0 0 0-.236-.593.79.79 0 0 0-.57-.246.79.79 0 0 0-.57.246.857.857 0 0 0-.235.593v.898c-2.698.429-4.796 2.848-4.796 5.775v2.303c0 1.678-.675 3.239-1.91 4.292a1.44 1.44 0 0 0-.36.491A1.495 1.495 0 0 0 2 15.2c0 .82.637 1.483 1.386 1.483h13.189c.29.009.577-.079.818-.25.24-.17.424-.415.523-.7a1.5 1.5 0 0 0 .031-.887 1.449 1.449 0 0 0-.473-.739ZM9.981 20c1.46 0 2.66-1.093 2.96-2.498H7.057C7.32 18.907 8.557 20 9.981 20Z"/>
</svg>
