<svg xmlns="http://www.w3.org/2000/svg" width="20" height="20" fill="none" viewBox="0 0 20 20">
  <path fill="#425466" d="M18.142 1.067A.523.523 0 0 0 17.875 1H4.98c-1.176 0-2.134.926-2.134 2.063l-.08 10.721H.554a.546.546 0 0 0-.553.54v1.957C0 17.776 1.255 19 2.787 19h11.037c1.561 0 2.826-1.244 2.826-2.757v-6.219h2.797a.546.546 0 0 0 .553-.54V3.198c0-1.07-.79-1.957-1.868-2.13h.01Zm.751 2.131v5.727H16.65V3.198c0-.588.514-1.07 1.117-1.07s1.107.482 1.116 1.07h.01Zm-7.332 10.576H3.883l.08-10.71c0-.54.454-.984 1.017-.984h10.9a2.122 2.122 0 0 0-.317 1.109v13.034c0 .444-.178.858-.504 1.177a1.725 1.725 0 0 1-1.136.5h-.227c-.88-.086-1.552-.8-1.562-1.667v-1.909a.546.546 0 0 0-.553-.54l-.02-.01Zm.02 4.127H2.678c-.87-.058-1.561-.771-1.561-1.63v-1.407h9.89v1.369c0 .607.199 1.186.574 1.668Z"/>
  <path fill="#425466" d="M5.682 5.82h4.1a.546.546 0 0 0 .554-.54.546.546 0 0 0-.553-.54H5.682a.546.546 0 0 0-.554.54c0 .3.247.54.554.54Zm0 3.018h7.658a.546.546 0 0 0 .553-.54.546.546 0 0 0-.553-.54H5.682a.546.546 0 0 0-.554.54c0 .3.247.54.554.54Zm8.211 2.488a.546.546 0 0 0-.553-.54H5.682a.546.546 0 0 0-.554.54c0 .298.247.54.554.54h7.658a.546.546 0 0 0 .553-.54Z"/>
</svg>
