<svg xmlns="http://www.w3.org/2000/svg" width="20" height="20" fill="none" viewBox="0 0 20 20">
  <path fill="#425466" d="M17.338 1.54h-1.65v-.8a.746.746 0 0 0-.74-.74.746.746 0 0 0-.74.74v.8H5.811v-.8a.746.746 0 0 0-.74-.74.746.746 0 0 0-.741.74v.8H2.68A2.672 2.672 0 0 0 .005 4.218v13.116A2.668 2.668 0 0 0 2.672 20h14.656a2.668 2.668 0 0 0 2.667-2.667V4.217a2.668 2.668 0 0 0-2.667-2.666l.01-.01ZM1.486 4.218c0-.652.534-1.185 1.186-1.185H4.32v.494c0 .405.336.74.74.74a.745.745 0 0 0 .741-.74v-.494h8.396v.494c0 .405.335.74.74.74a.746.746 0 0 0 .741-.74v-.494h1.65c.651 0 1.185.533 1.185 1.185V5.56H1.486V4.217Zm17.038 2.815v10.291a1.19 1.19 0 0 1-1.186 1.186H2.672a1.189 1.189 0 0 1-1.186-1.186V7.034h17.038Z"/>
</svg>
