<svg xmlns="http://www.w3.org/2000/svg" width="20" height="20" fill="none" viewBox="0 0 20 20">
  <path fill="#425466" d="M14.639 11.508a.768.768 0 0 0-1.087 0l-1.64 1.63-.103.103-.143-.041a7.996 7.996 0 0 1-3.178-1.682 8.298 8.298 0 0 1-1.712-3.2l-.041-.144.103-.102 1.63-1.641a.769.769 0 0 0 0-1.087L4.366 1.24a.768.768 0 0 0-1.087 0L.533 4.031a1.872 1.872 0 0 0-.4.584A1.797 1.797 0 0 0 0 5.313a15.38 15.38 0 0 0 4.336 10.359A15.36 15.36 0 0 0 14.69 20a1.768 1.768 0 0 0 1.271-.523l2.778-2.78a.769.769 0 0 0 0-1.087l-4.1-4.102Zm2.296 4.83-2.132 2.134h-.113a13.85 13.85 0 0 1-9.267-3.877 13.882 13.882 0 0 1-3.896-9.282V5.2l.072-.082 2.235-2.236 3.024 3.026-1.507 1.507a.764.764 0 0 0-.215.329.8.8 0 0 0-.03.38 10.217 10.217 0 0 0 2.294 4.49 10.076 10.076 0 0 0 4.48 2.277c.051 0 .103.02.154.02a.78.78 0 0 0 .215-.03.824.824 0 0 0 .328-.195l1.323-1.354.184-.184 3.024 3.025-.184.185.01-.02ZM16.35 3.641a7.198 7.198 0 0 1 2.112 5.077H20a8.417 8.417 0 0 0-.636-3.21 8.662 8.662 0 0 0-1.937-2.934A8.758 8.758 0 0 0 14.495.636 8.494 8.494 0 0 0 11.276 0v1.538a7.19 7.19 0 0 1 2.625.503 7.07 7.07 0 0 1 2.45 1.61v-.01Z"/>
  <path fill="#425466" d="M14.444 5.549c.44.44.779.954 1.004 1.528.205.523.308 1.077.318 1.641h.964c0-.687-.133-1.364-.39-2.01a5.503 5.503 0 0 0-1.21-1.836 5.5 5.5 0 0 0-1.834-1.21 5.611 5.611 0 0 0-2.01-.4v.964c.564 0 1.118.102 1.64.318a4.354 4.354 0 0 1 1.528 1.005h-.01Z"/>
</svg>
