<svg xmlns="http://www.w3.org/2000/svg" width="20" height="20" fill="none" viewBox="0 0 20 20">
  <path fill="#425466" fill-rule="evenodd" d="m19.746 9.36-4.534-4.81a.93.93 0 0 0-1.317-.038.933.933 0 0 0-.038 1.318L17.788 10l-3.93 4.17a.933.933 0 0 0 1.045 1.497.931.931 0 0 0 .309-.216l4.534-4.81a.934.934 0 0 0 0-1.28ZM6.143 14.17 2.213 10l3.93-4.17a.933.933 0 0 0-.038-1.318.93.93 0 0 0-1.317.038L.254 9.36a.934.934 0 0 0 0 1.28l4.535 4.81a.928.928 0 0 0 1.316.038.933.933 0 0 0 .038-1.318Zm5.076-12.16a.932.932 0 0 0-1.061.782L8 16.927a.933.933 0 1 0 1.841.281L12 3.073a.933.933 0 0 0-.78-1.062Z" clip-rule="evenodd"/>
</svg>
