<svg xmlns="http://www.w3.org/2000/svg" width="20" height="20" fill="none" viewBox="0 0 20 20">
  <path fill="#425466" fill-rule="evenodd" d="M5.91 0c.25 0 .454.204.454.455v1.818c0 .25.203.454.454.454h7.728a2.729 2.729 0 0 1 2.727 2.728v7.727c0 .25.203.454.454.454h1.819c.25 0 .454.204.454.455v2.727a.455.455 0 0 1-.454.455h-1.819a.455.455 0 0 0-.454.454v1.819a.455.455 0 0 1-.455.454h-2.727a.455.455 0 0 1-.455-.454v-1.819a.455.455 0 0 0-.454-.454H5.455a2.729 2.729 0 0 1-2.728-2.727V6.818a.455.455 0 0 0-.454-.454H.455A.455.455 0 0 1 0 5.909V3.182c0-.251.204-.455.455-.455h1.818a.455.455 0 0 0 .454-.454V.455c0-.251.204-.455.455-.455h2.727Zm7.272 13.636a.455.455 0 0 0 .454-.454V6.818a.455.455 0 0 0-.454-.454H6.818a.455.455 0 0 0-.454.454v6.364c0 .25.203.454.454.454h6.364Z" clip-rule="evenodd"/>
</svg>
