<svg xmlns="http://www.w3.org/2000/svg" width="20" height="20" fill="none" viewBox="0 0 20 20">
  <path fill="#425466" d="M19.037.932c-1.24-1.243-3.404-1.243-4.644 0L5.572 9.766a1.053 1.053 0 0 0 0 1.49L8.73 14.42a1.05 1.05 0 0 0 1.489 0l8.82-8.834a3.295 3.295 0 0 0-.002-4.654Zm-1.486 3.163-8.077 8.089-1.67-1.672 8.077-8.089a1.205 1.205 0 0 1 1.67.002 1.185 1.185 0 0 1 0 1.67Zm-12.287 9.58c-1.332-.67-3.685 0-3.685 2.108 0 1.262.526 2.108-1.579 3.163 0 0 3.421 2.372 5.79 0 1.341-1.343 1.573-4.217-.526-5.272Z"/>
</svg>
