<svg xmlns="http://www.w3.org/2000/svg" width="20" height="20" fill="none" viewBox="0 0 20 20">
  <path fill="#A9C360" d="M15.998 10.09a.492.492 0 0 0-.361-.15h-1.686a.513.513 0 0 0-.366.147.497.497 0 0 0-.15.372c0 .143.05.266.15.362.1.096.224.146.366.146h1.102v1.428a2.81 2.81 0 0 1-.573.18c-.72.154-1.36.068-1.902-.255a2.441 2.441 0 0 1-.88-.9 2.495 2.495 0 0 1-.322-1.25c0-.453.108-.875.322-1.253a2.394 2.394 0 0 1 2.11-1.225c.419 0 .832.093 1.219.27.179.11.455.133.647-.074a.53.53 0 0 0 .145-.37.457.457 0 0 0-.065-.24.518.518 0 0 0-.191-.181 2.866 2.866 0 0 0-.818-.324 4.04 4.04 0 0 0-.937-.106c-.646 0-1.246.157-1.786.467a3.465 3.465 0 0 0-1.748 3.037 3.469 3.469 0 0 0 1.748 3.039c.54.31 1.14.467 1.786.467a3.82 3.82 0 0 0 1.099-.161c.355-.106.686-.257.98-.45a.51.51 0 0 0 .258-.452v-2.155a.516.516 0 0 0-.145-.366l-.002-.002ZM9.31 6.84a.613.613 0 0 0-.202.246l-1.917 4.8L5.158 7.08c-.123-.28-.326-.338-.474-.338a.532.532 0 0 0-.356.14.466.466 0 0 0-.161.368c0 .063.008.154.038.215l2.452 5.803a.56.56 0 0 0 .472.312c.09 0 .188-.03.273-.085a.551.551 0 0 0 .22-.252l2.438-5.768a.595.595 0 0 0 .055-.235.455.455 0 0 0-.159-.35.523.523 0 0 0-.646-.052"/>
</svg>
