<svg xmlns="http://www.w3.org/2000/svg" width="20" height="20" fill="none" viewBox="0 0 20 20">
  <path fill="#C4270E" fill-rule="evenodd" d="M14.87 7.35c.032-.233.06-.635-.04-1l2.426-2.427-.59-.59-2.248 2.25c.039-.387-.021-1.079-.858-1.533a.366.366 0 0 0-.49.15c-.09.17-.03.39.15.49.39.21.49.49.5.72a.756.756 0 0 0-.3 0h-.03c-.25.04-.6.19-.86.67h-.17c-.18 0-1.81.02-2.56 1.97-1.35 3.49-3.2 5.44-5.49 5.79-.14.02-.22.12-.23.14-.09.11-.1.27-.03.4.04.06.09.12.16.15.157.079.47.221.908.352l-1.987 1.987.59.59 2.363-2.364a7.048 7.048 0 0 0 2.026.005 7.24 7.24 0 0 0 1.84-.52c3.27-1.39 5.43-3.68 5.37-5.71-.02-.56-.16-1.07-.44-1.5l-.01-.02Zm-.27 1.52c.05 1.71-1.98 3.77-4.93 5.03-1.71.72-3.2.57-4.11.34 2.04-.78 3.69-2.77 4.92-5.94.45-1.15 1.25-1.43 1.69-1.49.1-.01.17-.01.22-.01.46-.02 1.13.16 1.6.6.4.37.6.87.62 1.49l-.01-.02ZM13.31 6.2c.06-.05.12-.08.18-.09.16-.03.37.06.54.23.06.05.1.15.12.28-.3-.21-.6-.33-.84-.41V6.2Z" clip-rule="evenodd"/>
</svg>
