<svg xmlns="http://www.w3.org/2000/svg" width="20" height="20" fill="none" viewBox="0 0 20 20">
  <path fill="#228F73" d="m16.207 7.19.46.025-.009.436c-.001.107-.067 2.663-1.63 4.033a2.412 2.412 0 0 1-1.596.592c-.454 0-.905-.13-1.296-.373a11.404 11.404 0 0 0-1.012 1.962.476.476 0 0 1-.44.302h-.01a.478.478 0 0 1-.443-.282 10.092 10.092 0 0 0-.903-1.568 3.226 3.226 0 0 1-1.905.628c-.842 0-1.682-.32-2.299-.95-1.977-2.024-1.791-5.577-1.782-5.727l.025-.435.46.008c.159.002 3.902.088 5.895 2.126a2.846 2.846 0 0 1 .283 3.681c.253.346.468.683.636.972.202-.406.477-.896.811-1.377a2.143 2.143 0 0 1 .383-2.826c1.55-1.358 4.259-1.233 4.372-1.227Zm-1.828 3.83c.915-.802 1.199-2.2 1.286-2.924-.772.03-2.276.192-3.181.985-.404.355-.53.882-.382 1.351.316-.339.665-.643 1.05-.856a.493.493 0 0 1 .653.162.439.439 0 0 1-.171.619c-.343.19-.658.478-.944.807.521.31 1.215.27 1.689-.144Zm-5.003-.143a1.976 1.976 0 0 0-.356-2.295c-1.33-1.36-3.71-1.715-4.727-1.806.02.971.214 3.254 1.533 4.605.774.792 2.055.868 2.936.21-.458-.527-1.013-1.022-1.655-1.328a.442.442 0 0 1-.211-.608.49.49 0 0 1 .641-.2c.717.341 1.33.864 1.84 1.422Z"/>
</svg>
