<svg xmlns="http://www.w3.org/2000/svg" width="20" height="20" fill="none" viewBox="0 0 20 20">
  <path fill="#425466" d="M18.242 3H1.758C.79 3 0 3.784 0 4.75v10.5C0 16.217.791 17 1.758 17h16.484C19.21 17 20 16.216 20 15.25V4.75C20 3.783 19.21 3 18.242 3Zm-.27 1.167-7.518 7.509c-.229.229-.679.229-.908 0l-7.518-7.51h15.944Zm-16.8 10.869V4.964L6.213 10l-5.041 5.036Zm.856.797 5.013-5.007L8.716 12.5c.686.686 1.882.686 2.568 0l1.675-1.673 5.013 5.007H2.028Zm16.8-.797L13.787 10l5.041-5.036v10.072Z"/>
</svg>
