<svg xmlns="http://www.w3.org/2000/svg" width="20" height="20" fill="none" viewBox="0 0 20 20">
  <path fill="#425466" d="M18.91 8.754a8.97 8.97 0 0 0-3.476-5.93A9.013 9.013 0 0 0 2.83 4.55a8.957 8.957 0 0 0-1.745 6.644 9.029 9.029 0 0 0 2.56 5.157 9.07 9.07 0 0 0 5.163 2.57c.4.053.803.079 1.207.079a8.924 8.924 0 0 0 4.626-1.283.868.868 0 1 0-.899-1.488 7.267 7.267 0 0 1-9.367-1.647 7.227 7.227 0 0 1-1.351-6.503A7.23 7.23 0 0 1 4.697 5.1a7.255 7.255 0 0 1 6.265-2.245 7.265 7.265 0 0 1 5.22 3.376 7.223 7.223 0 0 1 .677 6.167 1.254 1.254 0 0 1-1.206.814 1.3 1.3 0 0 1-1.297-1.294V6.555a.867.867 0 0 0-.87-.869.872.872 0 0 0-.871.869v.008a4.358 4.358 0 0 0-6.4 1.31 4.332 4.332 0 0 0 .219 4.652 4.35 4.35 0 0 0 4.314 1.778 4.356 4.356 0 0 0 2.18-1.07 3.026 3.026 0 0 0 2.725 1.714 2.991 2.991 0 0 0 2.851-1.982 8.969 8.969 0 0 0 .406-4.21Zm-8.906 3.878a2.616 2.616 0 0 1-2.413-1.608 2.598 2.598 0 0 1 .566-2.838 2.613 2.613 0 0 1 4.458 1.841c0 .691-.276 1.353-.766 1.841a2.618 2.618 0 0 1-1.845.764Z"/>
</svg>
