<svg xmlns="http://www.w3.org/2000/svg" width="20" height="20" fill="none" viewBox="0 0 20 20">
  <path fill="#425466" fill-rule="evenodd" d="M7.547 3.134a.204.204 0 0 1-.209.077l-3.686-.844a.207.207 0 0 0-.25.214l.179 3.83a.21.21 0 0 1-.112.196L.111 8.366a.21.21 0 0 0-.057.327l2.564 2.818a.21.21 0 0 1 .038.222l-1.459 3.538a.209.209 0 0 0 .164.288l3.748.487c.08.01.146.067.17.145l1.123 3.662c.04.132.193.188.307.114l3.18-2.073a.203.203 0 0 1 .222 0l3.18 2.073a.205.205 0 0 0 .307-.114l1.122-3.662a.207.207 0 0 1 .17-.145l3.749-.487a.209.209 0 0 0 .163-.287l-1.459-3.539a.211.211 0 0 1 .04-.222l2.562-2.818a.21.21 0 0 0-.057-.327L16.53 6.607a.21.21 0 0 1-.11-.195l.178-3.831a.207.207 0 0 0-.25-.214l-3.687.844a.204.204 0 0 1-.208-.077L10.163.082a.204.204 0 0 0-.327 0L7.547 3.134ZM10 2.457l-1.208 1.61a1.76 1.76 0 0 1-1.801.66l-1.952-.446.096 2.058a1.765 1.765 0 0 1-.944 1.647l-1.813.95 1.39 1.528c.462.508.586 1.234.327 1.862l-.79 1.917 2.004.26c.696.09 1.258.58 1.458 1.232l.597 1.948 1.675-1.093a1.76 1.76 0 0 1 1.922 0l1.675 1.093.597-1.948c.2-.651.762-1.142 1.458-1.232l2.004-.26-.79-1.917a1.767 1.767 0 0 1 .326-1.862l1.39-1.529-1.812-.95a1.765 1.765 0 0 1-.944-1.646l.096-2.058-1.952.447a1.76 1.76 0 0 1-1.801-.66L10 2.457Z" clip-rule="evenodd"/>
</svg>
