<svg xmlns="http://www.w3.org/2000/svg" width="20" height="20" fill="none" viewBox="0 0 20 20">
  <g clip-path="url(#a)">
    <path fill="#425466" d="M.625 3.526h9.516a2.916 2.916 0 0 0 2.843 2.285c1.39 0 2.556-.98 2.843-2.285h3.548a.625.625 0 0 0 0-1.25h-3.549A2.919 2.919 0 0 0 12.984-.01c-1.389 0-2.556.98-2.843 2.286H.625a.625.625 0 0 0 0 1.25Zm10.698-.624v-.006a1.663 1.663 0 0 1 1.66-1.656c.912 0 1.657.742 1.661 1.654v.01a1.662 1.662 0 0 1-1.66 1.657 1.662 1.662 0 0 1-1.66-1.656v-.003Zm8.052 13.572h-3.549a2.919 2.919 0 0 0-2.842-2.285c-1.389 0-2.556.98-2.843 2.285H.625a.625.625 0 1 0 0 1.25h9.516a2.916 2.916 0 0 0 2.843 2.286c1.39 0 2.556-.98 2.843-2.286h3.548a.625.625 0 1 0 0-1.25Zm-6.391 2.286a1.662 1.662 0 0 1-1.66-1.657v-.009a1.663 1.663 0 0 1 1.66-1.655c.911 0 1.656.741 1.66 1.654v.009a1.662 1.662 0 0 1-1.66 1.658Zm6.391-9.385H9.859A2.916 2.916 0 0 0 7.016 7.09c-1.39 0-2.556.98-2.843 2.285H.625a.625.625 0 0 0 0 1.25h3.549a2.919 2.919 0 0 0 2.842 2.285c1.389 0 2.556-.98 2.843-2.285h9.516a.625.625 0 1 0 0-1.25Zm-10.698.623v.007a1.663 1.663 0 0 1-1.66 1.655 1.664 1.664 0 0 1-1.661-1.653v-.01a1.662 1.662 0 0 1 1.66-1.657 1.66 1.66 0 0 1 1.66 1.656v.002Z"/>
  </g>
  <defs>
    <clipPath id="a">
      <path fill="#fff" d="M0 0h20v20H0z"/>
    </clipPath>
  </defs>
</svg>
