<svg xmlns="http://www.w3.org/2000/svg" width="20" height="20" fill="none" viewBox="0 0 20 20">
  <path fill="#425466" d="M18.115 1.885a6.454 6.454 0 0 0-9.116 0 6.445 6.445 0 0 0-1.57 6.542L.172 15.685a.586.586 0 0 0-.172.414v3.315c0 .324.262.586.586.586h3.315a.586.586 0 0 0 .415-.172L5.144 19a.586.586 0 0 0 .168-.482l-.103-.89 1.233-.116a.586.586 0 0 0 .529-.528l.116-1.234.89.103a.585.585 0 0 0 .654-.582V14.18h1.071a.582.582 0 0 0 .412-.17l1.456-1.439a6.445 6.445 0 0 0 6.545-1.569 6.454 6.454 0 0 0 0-9.116Zm-.829 8.288a5.275 5.275 0 0 1-5.652 1.176.586.586 0 0 0-.626.129l-1.546 1.529H8.045a.586.586 0 0 0-.586.586v1.019l-.831-.097a.587.587 0 0 0-.651.527l-.128 1.348-1.347.127a.587.587 0 0 0-.527.65l.14 1.204-.457.457H1.172v-2.486L8.52 8.994a.586.586 0 0 0 .13-.628 5.275 5.275 0 0 1 1.177-5.652 5.28 5.28 0 0 1 7.46 0 5.28 5.28 0 0 1 0 7.459Z"/>
  <path fill="#425466" d="M16.457 3.543a1.76 1.76 0 0 0-2.486 0 1.76 1.76 0 0 0 0 2.486 1.76 1.76 0 0 0 2.486 0 1.76 1.76 0 0 0 0-2.486ZM15.63 5.2a.587.587 0 1 1-.83-.83.587.587 0 0 1 .83.83Z"/>
</svg>
