<svg xmlns="http://www.w3.org/2000/svg" width="20" height="20" fill="none" viewBox="0 0 20 20">
  <path fill="#425466" fill-rule="evenodd" d="M8.999 1.885a6.454 6.454 0 0 1 9.116 0 6.454 6.454 0 0 1 0 9.116 6.445 6.445 0 0 1-6.545 1.57l-1.456 1.438a.586.586 0 0 1-.412.17H8.631v1.091a.586.586 0 0 1-.654.582l-.89-.103-.116 1.234a.586.586 0 0 1-.529.528l-1.233.116.103.89a.586.586 0 0 1-.168.482l-.828.83A.586.586 0 0 1 3.9 20H.586A.586.586 0 0 1 0 19.414v-3.315a.586.586 0 0 1 .172-.415l7.257-7.257a6.445 6.445 0 0 1 1.57-6.542ZM15.5 6a1.5 1.5 0 1 0 0-3 1.5 1.5 0 0 0 0 3Z" clip-rule="evenodd"/>
</svg>
