<svg xmlns="http://www.w3.org/2000/svg" width="20" height="20" fill="none" viewBox="0 0 20 20">
  <path fill="#425466" d="M18.918.056 5.9 5.262H2.368A2.372 2.372 0 0 0 0 7.631v2.895c0 1.24.974 2.105 2.368 2.105h.895l.956 6.69A.79.79 0 0 0 5 20h3.158a.793.793 0 0 0 .785-.878l-.62-5.522 10.594 4.238a.795.795 0 0 0 .991-.363.789.789 0 0 0 .092-.37V.79a.79.79 0 0 0-1.082-.733Zm-17.34 10.47V7.63a.793.793 0 0 1 .79-.79h2.895v4.21H2.368c-.36 0-.789-.09-.789-.525Zm5.697 7.894h-1.59l-.827-5.79H5.9l.759.304.615 5.486Zm11.146-2.48L7.71 11.653c-.045-.021-.088-.043-.137-.056l-.73-.291v-4.72l11.58-4.632V15.94Z"/>
</svg>
