<svg xmlns="http://www.w3.org/2000/svg" width="20" height="20" fill="none" viewBox="0 0 20 20">
  <path fill="#425466" fill-rule="evenodd" d="M3 0a3 3 0 0 0-3 3v14a3 3 0 0 0 3 3h14a3 3 0 0 0 3-3V3a3 3 0 0 0-3-3H3Zm8.715 2.38a.875.875 0 0 0-1.236 1.24 9.016 9.016 0 0 1 0 12.76.875.875 0 1 0 1.236 1.24c4.213-4.209 4.213-11.031 0-15.24ZM9.167 4.927A.875.875 0 1 0 7.93 6.164a5.42 5.42 0 0 1 0 7.671.875.875 0 1 0 1.237 1.238 7.17 7.17 0 0 0 0-10.147ZM6.618 7.472A.875.875 0 1 0 5.382 8.71a1.823 1.823 0 0 1 0 2.58.875.875 0 0 0 1.236 1.238 3.573 3.573 0 0 0 0-5.056Z" clip-rule="evenodd"/>
</svg>
