<svg xmlns="http://www.w3.org/2000/svg" width="20" height="20" fill="none" viewBox="0 0 20 20">
  <path fill="#425466" d="M16.597 5.036 11.708.394a1.497 1.497 0 0 0-.452-.29A1.363 1.363 0 0 0 10.715 0H4.164c-.285 0-.57.052-.836.155a2.16 2.16 0 0 0-.698.446 1.966 1.966 0 0 0-.266.31 1.768 1.768 0 0 0-.197.353A1.934 1.934 0 0 0 2 2.041V17.96c0 .269.059.528.167.777.05.124.118.238.197.352.079.114.167.218.266.311a2.233 2.233 0 0 0 1.544.6h10.672c.433 0 .846-.124 1.21-.342a2.02 2.02 0 0 0 .324-.259c.099-.093.187-.197.266-.31a1.52 1.52 0 0 0 .197-.353c.108-.249.157-.508.157-.777v-12c0-.353-.148-.674-.413-.923h.01Zm-.876.974v11.95c0 .114-.02.227-.069.331a.892.892 0 0 1-.816.529H4.164a.888.888 0 0 1-.816-.529.77.77 0 0 1-.07-.331V2.04a.77.77 0 0 1 .07-.331.892.892 0 0 1 .196-.28.771.771 0 0 1 .286-.186.914.914 0 0 1 .334-.063h6.226v4.477c0 .342.148.684.403.922.128.125.286.218.453.29.177.073.354.104.54.104h2.293c.088 0 .167-.02.246-.052a.558.558 0 0 0 .206-.134.605.605 0 0 0 .138-.187.59.59 0 0 0 .049-.228.59.59 0 0 0-.187-.425.726.726 0 0 0-.206-.135.648.648 0 0 0-.246-.041h-2.41v-3.72l.413.394 3.57 3.388.08.073v.114l-.01-.01Z"/>
</svg>
