<svg xmlns="http://www.w3.org/2000/svg" width="20" height="20" fill="none" viewBox="0 0 20 20">
  <path fill="#425466" d="M10 0C4.444 0 0 4.444 0 10s4.444 10 10 10c.889 0 1.667-.778 1.667-1.667 0-.444-.111-.777-.445-1.11-.222-.334-.444-.667-.444-1.112 0-.889.778-1.667 1.666-1.667h2C17.556 14.444 20 12 20 8.89 20 4 15.556 0 10 0ZM3.889 10C3 10 2.222 9.222 2.222 8.333S3 6.667 3.89 6.667s1.667.777 1.667 1.666c0 .89-.778 1.667-1.667 1.667Zm3.333-4.444c-.889 0-1.666-.778-1.666-1.667s.777-1.667 1.666-1.667c.89 0 1.667.778 1.667 1.667S8.11 5.556 7.222 5.556Zm5.556 0c-.89 0-1.667-.778-1.667-1.667s.778-1.667 1.667-1.667S14.444 3 14.444 3.89s-.777 1.667-1.666 1.667ZM16.11 10c-.889 0-1.667-.778-1.667-1.667s.778-1.666 1.667-1.666 1.667.777 1.667 1.666C17.778 9.223 17 10 16.11 10Z"/>
</svg>
