<svg xmlns="http://www.w3.org/2000/svg" width="20" height="20" fill="none" viewBox="0 0 20 20">
  <path fill="#425466" d="M0 5h5V0H0v5Zm1.4-3.6h2.2v2.2H1.4V1.4Zm12.77 17.5h-1.1V20h1.1v-1.1Zm-1.94 0h-6.4V20h6.4v-1.1ZM0 20h5v-5H0v5Zm1.4-3.6h2.2v2.2H1.4v-2.2Zm-.3-9.5H0V8h1.1V6.9Zm2.1 0H2.1v6.2h1.1V6.9ZM6.93 0h-1.1v1.1h1.1V0ZM1.1 8.8H0v4.3h1.1V8.8Zm16.8-1.9h-1.1v6.2h1.1V6.9Zm2.1 0h-1.1V8H20V6.9Zm0 1.9h-1.1v4.3H20V8.8ZM15 0v5h5V0h-5Zm3.6 3.6h-2.2V1.4h2.2v2.2ZM15 20h5v-5h-5v5Zm1.4-3.6h2.2v2.2h-2.2v-2.2ZM7.2 14h5.6a1.19 1.19 0 0 0 .89-.4c.19-.21.31-.49.31-.8V7.2c0-.31-.12-.59-.31-.8-.03-.03-.06-.07-.09-.09a1.19 1.19 0 0 0-.8-.31H7.2c-.31 0-.59.12-.8.31l-.09.09c-.19.21-.31.49-.31.8v5.6a1.19 1.19 0 0 0 .4.89c.21.19.49.31.8.31Zm.2-6.6h5.2v5.2H7.4V7.4Zm6.76-5.3H5.83v1.1h8.33V2.1Zm.01-2.1h-6.4v1.1h6.4V0Zm-.01 16.8H5.83v1.1h8.33v-1.1Z"/>
</svg>
