<svg xmlns="http://www.w3.org/2000/svg" width="20" height="20" fill="none" viewBox="0 0 20 20">
  <path fill="#425466" d="M5.83 2.1v1.1h8.34V2.1H5.83ZM18.9 8.8v4.3H20V8.8h-1.1ZM6.17 13.38c.04.08.08.16.14.22l.04.04.01.01.04.04c.06.06.15.09.22.14.04.02.08.06.13.08.14.06.29.09.45.09h5.6c.16 0 .31-.03.45-.09.05-.02.08-.05.13-.08.08-.04.16-.08.22-.14l.04-.04.01-.01.04-.04c.06-.07.09-.15.14-.22.02-.04.06-.08.08-.13.06-.14.09-.29.09-.45V7.2c0-.16-.03-.31-.09-.45-.02-.05-.05-.08-.08-.13a.826.826 0 0 0-.14-.22l-.04-.04-.01-.01-.04-.04c-.06-.06-.15-.09-.22-.14-.04-.02-.08-.06-.13-.08A1.13 1.13 0 0 0 12.8 6H7.2c-.16 0-.31.03-.45.09-.05.02-.08.05-.13.08-.08.04-.16.08-.22.14l-.04.04-.01.01-.04.04c-.06.06-.09.15-.14.22-.02.04-.06.08-.08.13-.06.14-.09.29-.09.45v5.6c0 .16.03.31.09.45.02.05.05.08.08.13Zm-.34 3.42v1.1h8.34v-1.1H5.83Zm1.1-15.7V0h-1.1v1.1h1.1Zm-5.83 12V8.8H0v4.3h1.1ZM5 0H0v5h5V0Zm2.77 1.1h6.4V0h-6.4v1.1ZM20 0h-5v5h5V0ZM1.1 6.9H0V8h1.1V6.9Zm2.1 0H2.1v6.2h1.1V6.9Zm16.8 0h-1.1V8H20V6.9Zm-2.1 0h-1.1v6.2h1.1V6.9ZM5 15H0v5h5v-5Zm7.23 3.9h-6.4V20h6.4v-1.1Zm1.94 0h-1.1V20h1.1v-1.1ZM20 15h-5v5h5v-5Z"/>
</svg>
