<svg xmlns="http://www.w3.org/2000/svg" width="20" height="20" fill="none" viewBox="0 0 20 20">
  <path fill="#425466" fill-rule="evenodd" d="M10 20c5.523 0 10-4.477 10-10S15.523 0 10 0 0 4.477 0 10s4.477 10 10 10Zm.374-8.158v.273H9.012v-.273c0-1.082.687-1.64 1.338-2.128.552-.428 1.055-.832 1.055-1.522 0-.808-.515-1.343-1.374-1.343-.871 0-1.473.63-1.473 1.545H7c0-1.7 1.288-2.9 3.068-2.9C11.896 5.493 13 6.515 13 8.096c0 1.272-.847 1.878-1.558 2.366-.601.416-1.068.773-1.068 1.379Zm.368 1.712c0 .5-.454.94-.994.94-.552 0-.993-.429-.993-.94 0-.523.441-.951.993-.951.54 0 .994.428.994.95Z" clip-rule="evenodd"/>
</svg>
