<svg xmlns="http://www.w3.org/2000/svg" width="20" height="20" fill="none" viewBox="0 0 20 20">
  <path fill="#425466" fill-rule="evenodd" d="M10 6.238C1.046 6.456.054 11.11.002 16.808a43.918 43.918 0 0 0-.001.187l-.001.35c0 .148.05.29.144.406A.67.67 0 0 0 .667 18a.675.675 0 0 0 .596-.361l.15-.292v-.002l.075-.144.012-.024c1.062-2.04 2.32-3.894 7-4.317.465-.042.964-.07 1.5-.082v4.569c0 .127.038.251.109.357a.676.676 0 0 0 1.01.122l8.667-7.845a.646.646 0 0 0 0-.96l-8.667-7.846a.672.672 0 0 0-.72-.12.663.663 0 0 0-.29.242.644.644 0 0 0-.109.358v4.584Zm1.5-2.696v4.16l-1.463.036c-4.369.106-6.29 1.308-7.254 2.746-.66.982-.995 2.233-1.154 3.76.341-.389.74-.764 1.212-1.105 1.58-1.14 3.797-1.784 7.124-1.862l1.535-.036v4.217L18.081 9.5 11.5 3.542Z" clip-rule="evenodd"/>
</svg>
