<svg xmlns="http://www.w3.org/2000/svg" width="20" height="20" fill="none" viewBox="0 0 20 20">
  <g clip-path="url(#a)">
    <path fill="#425466" d="M11.623.732a.665.665 0 0 0-.706.08L4.432 6H1.333C.6 6 0 6.6 0 7.334v5.333C0 13.403.599 14 1.333 14h3.099l6.484 5.188a.673.673 0 0 0 .707.079.666.666 0 0 0 .377-.6V1.334a.669.669 0 0 0-.377-.602Z"/>
    <path fill="#425466" fill-rule="evenodd" d="M12.96 6.76a.536.536 0 0 1 .757.009l2.473 2.537 2.474-2.537a.536.536 0 1 1 .767.748l-2.492 2.557 2.348 2.41a.536.536 0 0 1-.767.747l-2.33-2.39-2.329 2.39a.536.536 0 0 1-.767-.748l2.348-2.409-2.492-2.557a.536.536 0 0 1 .01-.758Z" clip-rule="evenodd"/>
  </g>
  <defs>
    <clipPath id="a">
      <path fill="#fff" d="M0 0h20v20H0z"/>
    </clipPath>
  </defs>
</svg>
