<svg xmlns="http://www.w3.org/2000/svg" width="20" height="20" fill="none" viewBox="0 0 20 20">
  <path fill="#425466" fill-rule="evenodd" d="m1.555 10.961 3.133-3.134a.853.853 0 1 1 1.207 1.207l-3.139 3.14a3.565 3.565 0 0 0-1.05 2.535c0 .958.374 1.86 1.05 2.536a3.589 3.589 0 0 0 5.071 0l3.139-3.14a.853.853 0 1 1 1.207 1.208l-3.139 3.14A5.274 5.274 0 0 1 5.292 20a5.274 5.274 0 0 1-3.742-1.548c-1-1-1.55-2.328-1.55-3.743 0-1.414.55-2.742 1.55-3.742l.005-.006Zm13.756 1.212 3.134-3.134.006-.006A5.259 5.259 0 0 0 20 5.291c0-1.415-.55-2.743-1.55-3.743a5.297 5.297 0 0 0-7.484 0l-3.139 3.14a.854.854 0 0 0 1.207 1.206l3.138-3.139a3.589 3.589 0 0 1 5.071 0 3.565 3.565 0 0 1 1.05 2.536c0 .957-.373 1.858-1.05 2.536l-3.138 3.14a.854.854 0 0 0 1.206 1.206Zm-8.776 1.755a.854.854 0 0 1-.277-1.392l6.277-6.28a.853.853 0 1 1 1.207 1.208l-6.277 6.279a.85.85 0 0 1-.93.185Z" clip-rule="evenodd"/>
</svg>
