<svg xmlns="http://www.w3.org/2000/svg" width="20" height="20" fill="none" viewBox="0 0 20 20">
  <path fill="#425466" d="M7.715 10c1.151 0 2-.849 2-2s-.849-2-2-2-2 .849-2 2 .848 2 2 2Z"/>
  <path fill="#425466" d="M18 2H2C.897 2 0 2.841 0 3.875v12.25C0 17.159.897 18 2 18h16c1.103 0 2-.841 2-1.875V3.875C20 2.841 19.103 2 18 2Zm.2 14.2H1.8V3.8h16.4v12.4Z"/>
  <path fill="#425466" d="M12 7h4v2h-4V7Zm1 4h3v2h-3v-2Zm-1.57 2.536c0-1.374-1.676-2.786-3.715-2.786C5.676 10.75 4 12.162 4 13.536V14h7.43v-.464Z"/>
</svg>
