<svg xmlns="http://www.w3.org/2000/svg" width="20" height="20" fill="none" viewBox="0 0 20 20">
  <path fill="#425466" d="M10 4.75a10.74 10.74 0 0 1 7.811 3.333L19 6.846C16.619 4.366 13.422 3 10 3 6.578 3 3.381 4.366 1 6.846l1.189 1.237A10.742 10.742 0 0 1 10 4.75Zm4.767 7.269c-2.584-2.69-6.95-2.69-9.534 0l1.189 1.237c1.939-2.019 5.217-2.019 7.156 0l1.189-1.237Z"/>
  <path fill="#425466" d="M17.092 9.381c-3.843-4.002-10.34-4.002-14.183 0l1.189 1.238c3.2-3.332 8.605-3.332 11.805 0l1.189-1.238ZM10 17c.928 0 1.681-.784 1.681-1.75S10.93 13.5 10 13.5c-.928 0-1.681.784-1.681 1.75S9.072 17 10 17Z"/>
</svg>
