<svg xmlns="http://www.w3.org/2000/svg" width="20" height="20" fill="none" viewBox="0 0 20 20">
  <path fill="#CC686E" d="M17.2 2.344h-3v-.586C14.2.788 13.393 0 12.4 0H7.6c-.993 0-1.8.789-1.8 1.758v.586h-3c-.993 0-1.8.788-1.8 1.758 0 .778.521 1.44 1.24 1.67l1.07 12.616c.077.904.865 1.612 1.794 1.612h9.792c.929 0 1.717-.708 1.794-1.612l1.07-12.616A1.765 1.765 0 0 0 19 4.102c0-.97-.808-1.758-1.8-1.758ZM7 1.758c0-.323.27-.586.6-.586h4.8c.33 0 .6.263.6.586v.586H7v-.586Zm8.494 16.533a.598.598 0 0 1-.598.537H5.104a.598.598 0 0 1-.598-.537L3.452 5.86h13.096l-1.054 12.432ZM17.2 4.687H2.8c-.33 0-.6-.262-.6-.585 0-.324.27-.586.6-.586h14.4c.33 0 .6.262.6.586 0 .323-.27.585-.6.585Z"/>
  <path fill="#CC686E" d="m7.599 17.034-.6-9.453a.596.596 0 0 0-.636-.549.591.591 0 0 0-.562.621l.6 9.454c.02.31.284.55.598.55a.593.593 0 0 0 .6-.623ZM10 7.031c-.331 0-.6.263-.6.586v9.453c0 .324.269.586.6.586.331 0 .6-.262.6-.586V7.617a.593.593 0 0 0-.6-.586Zm3.637.001a.596.596 0 0 0-.636.549l-.6 9.453a.591.591 0 0 0 .562.621c.33.02.615-.226.636-.549l.6-9.453a.591.591 0 0 0-.562-.62Z"/>
</svg>
