<svg xmlns="http://www.w3.org/2000/svg" width="20" height="20" fill="none" viewBox="0 0 20 20">
  <path fill="#425466" d="M19.88 4.559a.827.827 0 0 0-.7-.45c-.14 0-.29.04-.41.11l-3.777 2.239v-.81c0-1.449-1.09-2.638-2.45-2.648H2.45C1.089 3 0 4.2 0 5.648v8.704C0 15.8 1.09 16.99 2.449 17h10.105c1.359 0 2.448-1.2 2.448-2.648v-.78l3.779 2.239c.13.07.27.11.41.11.14 0 .29-.05.41-.13s.22-.19.29-.32a.927.927 0 0 0 .109-.43V4.99c0-.15-.04-.3-.11-.43h-.01Zm-1.3 1.499v7.894l-3.627-2.258V8.316l3.628-2.258Zm-17.17-.41c0-.63.47-1.13 1.039-1.13h10.105c.57 0 1.04.51 1.04 1.13v8.704c0 .63-.47 1.13-1.04 1.13H2.449c-.57 0-1.04-.51-1.04-1.13V5.648Z"/>
</svg>
