<svg xmlns="http://www.w3.org/2000/svg" width="20" height="20" fill="none" viewBox="0 0 20 20">
  <path fill="#425466" fill-rule="evenodd" d="M12.5 13.6a1.1 1.1 0 0 0 1.1-1.1v-10a1.1 1.1 0 0 0-1.1-1.1h-10a1.1 1.1 0 0 0-1.1 1.1v10a1.1 1.1 0 0 0 1.1 1.1h10ZM15 5h2.5A2.5 2.5 0 0 1 20 7.5v10a2.5 2.5 0 0 1-2.5 2.5h-10A2.5 2.5 0 0 1 5 17.5V15H2.5A2.5 2.5 0 0 1 0 12.5v-10A2.5 2.5 0 0 1 2.5 0h10A2.5 2.5 0 0 1 15 2.5V5ZM6 17.5A1.5 1.5 0 0 0 7.5 19h10a1.5 1.5 0 0 0 1.5-1.5v-10A1.5 1.5 0 0 0 17.5 6H15v6.5a2.5 2.5 0 0 1-2.5 2.5H6v2.5Z" clip-rule="evenodd"/>
</svg>
