<svg xmlns="http://www.w3.org/2000/svg" width="20" height="20" fill="none" viewBox="0 0 20 20">
  <path fill="#425466" fill-rule="evenodd" d="M19.276 8.868h-7.42a.724.724 0 0 1-.724-.723V.724A.724.724 0 0 1 11.855 0h7.421A.724.724 0 0 1 20 .724v7.42a.724.724 0 0 1-.724.724Zm-6.697-7.42V7.42h5.974V1.447h-5.974ZM15.566 20a4.433 4.433 0 1 1 0-8.867 4.433 4.433 0 0 1 0 8.867Zm0-7.421a2.986 2.986 0 1 0 0 5.972 2.986 2.986 0 0 0 0-5.972ZM.724 11.132h7.42a.724.724 0 0 1 .724.723v7.421a.724.724 0 0 1-.723.724H.724A.724.724 0 0 1 0 19.276v-7.42a.723.723 0 0 1 .724-.724Zm.723 7.42h5.974V12.58H1.447v5.974Zm6.698-9.684H.724A.724.724 0 0 1 0 8.145V.724A.724.724 0 0 1 .724 0h7.42a.724.724 0 0 1 .724.724v7.42a.724.724 0 0 1-.723.724Zm-6.698-7.42V7.42h5.974V1.447H1.447Z" clip-rule="evenodd"/>
</svg>
