<svg xmlns="http://www.w3.org/2000/svg" width="20" height="20" fill="none" viewBox="0 0 20 20">
  <path fill="#7EC77B" d="M13.109 6.516a.597.597 0 0 0-.219.229l-2.799 6.06-2.966-6.062c-.107-.212-.27-.314-.495-.314a.608.608 0 0 0-.376.128.392.392 0 0 0-.167.329c0 .087.014.155.04.198l3.376 6.912a.544.544 0 0 0 .207.203c.086.05.18.079.29.086a.638.638 0 0 0 .292-.081.555.555 0 0 0 .229-.229l3.367-6.883a.534.534 0 0 0 .056-.218.374.374 0 0 0-.16-.308.626.626 0 0 0-.394-.127.53.53 0 0 0-.283.077h.002Z"/>
</svg>
