<svg xmlns="http://www.w3.org/2000/svg" width="20" height="20" fill="none" viewBox="0 0 20 20">
  <path fill="#FBB446" fill-rule="evenodd" d="M7.068 14.11 3.72 17.459l-.589-.59 3.378-3.377a3.3 3.3 0 0 1-.176-.297c-.496-.783-.482-2.29-.478-2.335l.025-.395.394-.033.015-.001c.033-.002.113-.007.227-.008-.751-1.112-.666-2.574-.661-2.644v-.012l-.007-.025a.301.301 0 0 1-.015-.081V6.153a.46.46 0 1 1 .922 0v1.19c.384.013.948.076 1.514.286a2.757 2.757 0 0 1-.046-.47c.01-1.265.906-2.29 1.31-2.69V3.127a.46.46 0 1 1 .92 0v1.277c.35.342 1.35 1.436 1.34 2.784a2.74 2.74 0 0 1-.05.443 4.948 4.948 0 0 1 1.474-.287v-1.19a.46.46 0 0 1 .86-.231l2.59-2.59.589.59-3.104 3.104.014.99c-.004.47-.084 1.541-.665 2.404.137.001.225.008.24.01l.395.033.025.395c.006.08.114 1.966-1.025 3.083-.831.812-2.048.953-2.682.968v1.22a.46.46 0 1 1-.922 0v-1.22c-.594-.018-1.66-.146-2.464-.8Zm6.165-2.763c-.52.026-1.391.155-1.95.703-.56.548-.707 1.418-.743 1.935.518-.024 1.391-.153 1.951-.702.556-.544.704-1.417.742-1.936Zm-3.759 2.637c-.035-.517-.182-1.387-.742-1.935-.555-.544-1.431-.674-1.95-.7.035.518.182 1.386.741 1.934.557.545 1.432.675 1.951.7Zm-1.95-3.782c.556.545 1.43.674 1.95.701-.035-.518-.182-1.386-.742-1.934-.555-.545-1.431-.675-1.95-.701.035.518.182 1.387.741 1.934Zm4.967 0c.56-.548.707-1.418.744-1.936-.52.025-1.392.154-1.953.703-.559.548-.706 1.418-.742 1.935.518-.025 1.391-.153 1.951-.702Zm-1.62-3.021c.006-.785-.506-1.503-.848-1.892-.348.384-.872 1.094-.879 1.878-.006.784.506 1.501.848 1.892.35-.385.873-1.094.88-1.878Z" clip-rule="evenodd"/>
</svg>
