<svg xmlns="http://www.w3.org/2000/svg" width="20" height="20" fill="none" viewBox="0 0 20 20">
  <path fill="#C4270E" d="M14.434 9.615c.16.853-.623 2.232-1.95 3.431-1.251 1.134-3.464 1.357-4.088 1.16.12-.037.3-.072.443-.1.784-.154 2.094-.413 2.828-1.963.297-.63.338-1.253.37-1.753.007-.11.014-.215.024-.315.042-.45.172-1.035.547-1.268.323-.201.775-.097 1.097.025.423.162.66.418.73.783m.698-2.796a.882.882 0 0 0-.735.061c-.422.234-.675.792-.805 1.172-.65-.159-1.095-.018-1.362.148-.5.311-.798.919-.882 1.808-.01.107-.018.219-.025.337-.03.461-.063.985-.303 1.492-.579 1.226-1.544 1.415-2.32 1.568-.533.105-1.137.224-1.12.842.005.146.069.414.457.58.238.102.578.153.976.153 1.193 0 2.907-.46 3.95-1.404 1.55-1.402 2.382-2.97 2.172-4.093-.069-.37-.281-.85-.875-1.178.11-.325.292-.694.484-.8a.172.172 0 0 1 .154-.012.358.358 0 1 0 .234-.674m-6.832 3.26c-1.252 1.132-3.465 1.357-4.089 1.16.12-.037.3-.073.444-.101.784-.155 2.095-.412 2.828-1.963.297-.629.337-1.25.37-1.748.007-.111.014-.219.023-.32.043-.45.173-1.035.548-1.268.324-.201.775-.096 1.096.026.423.162.662.418.73.783.16.853-.625 2.233-1.95 3.431m2.652-3.563c-.07-.37-.282-.85-.877-1.178.112-.325.294-.695.485-.8a.177.177 0 0 1 .155-.012.359.359 0 0 0 .455-.22.358.358 0 0 0-.22-.455.88.88 0 0 0-.735.062c-.423.233-.676.793-.806 1.172-.65-.16-1.094-.02-1.362.148-.5.31-.797.918-.882 1.807-.01.108-.017.222-.025.34-.03.462-.064.984-.303 1.49-.579 1.224-1.544 1.414-2.32 1.566-.533.106-1.137.225-1.12.843.005.146.07.415.457.58.238.102.577.154.976.154 1.192 0 2.906-.461 3.949-1.404 1.55-1.402 2.383-2.97 2.173-4.093"/>
</svg>
