<svg xmlns="http://www.w3.org/2000/svg" width="20" height="20" fill="none" viewBox="0 0 20 20">
  <path fill="#425466" d="M6.886 18a.77.77 0 0 1-.66-.39.834.834 0 0 1 0-.81l2.6-4.67c-1.53-.39-4.87-1.25-5.23-1.34a.792.792 0 0 1-.57-.6c-.07-.3.04-.61.27-.8l8.54-7.21c.27-.23.67-.24.96-.02.3.24.4.65.23.99l-1.96 4.7 5.34 1.37c.27.06.51.3.57.61.07.3-.06.63-.3.82l-9.32 7.19c-.13.1-.29.16-.46.16h-.01Zm-2.25-8.19c1.58.41 5.01 1.29 5.23 1.34.18.05.33.17.4.34s.06.37-.03.53l-2.02 3.63 7.09-5.47-5.21-1.34a.609.609 0 0 1-.39-.31.623.623 0 0 1-.02-.5l1.59-3.82-6.64 5.6Z"/>
</svg>
