<svg xmlns="http://www.w3.org/2000/svg" width="20" height="20" fill="none" viewBox="0 0 20 20">
  <g clip-path="url(#a)">
    <path fill="#425466" fill-rule="evenodd" d="M18.007 5.119a.5.5 0 0 1-.708 0L14.882 2.7a.5.5 0 0 1 0-.707l1.64-1.64a.5.5 0 0 1 .707 0l2.418 2.417a.5.5 0 0 1 0 .707l-1.64 1.64Zm-2.395 1.687a.5.5 0 0 1 0 .707l-7.341 7.34a.5.5 0 0 1-.354.147H5.5a.5.5 0 0 1-.5-.5v-2.417a.5.5 0 0 1 .146-.354l7.341-7.34a.5.5 0 0 1 .707 0l2.418 2.417Z" clip-rule="evenodd"/>
    <path fill="#425466" d="M11 1.75a.75.75 0 0 1-.75.75H3A1.5 1.5 0 0 0 1.5 4v13A1.5 1.5 0 0 0 3 18.5h13a1.5 1.5 0 0 0 1.5-1.5V9.75a.75.75 0 0 1 1.5 0V17a3 3 0 0 1-3 3H3a3 3 0 0 1-3-3V4a3 3 0 0 1 3-3h7.25a.75.75 0 0 1 .75.75Z"/>
  </g>
  <defs>
    <clipPath id="a">
      <path fill="#fff" d="M0 0h20v20H0z"/>
    </clipPath>
  </defs>
</svg>
