<svg xmlns="http://www.w3.org/2000/svg" width="20" height="20" fill="none" viewBox="0 0 20 20">
  <path fill="#425466" fill-rule="evenodd" d="M8.698.54.543 8.692l-.008.009a1.843 1.843 0 0 0 .003 2.6 1.83 1.83 0 0 0 1.279.54h.325v6.003c0 1.188.967 2.155 2.155 2.155H7.49a.586.586 0 0 0 .586-.586v-4.707c0-.542.442-.983.984-.983h1.883c.542 0 .983.44.983.983v4.707c0 .324.262.586.586.586h3.192a2.157 2.157 0 0 0 2.155-2.155V11.84h.302a1.844 1.844 0 0 0 1.302-3.14L11.303.54A1.829 1.829 0 0 0 10 0a1.83 1.83 0 0 0-1.302.54Zm9.703 9.219L10.241 1.6a.33.33 0 0 0-.24-.1.33.33 0 0 0-.242.1l-8.15 8.148-.006.007-.005.004a.343.343 0 0 0 0 .482.332.332 0 0 0 .226.099l.032.001h1.786v7.504c0 .36.295.655.655.655h2.278v-3.793a2.484 2.484 0 0 1 2.484-2.483h1.883a2.484 2.484 0 0 1 2.483 2.483V18.5h2.278c.36 0 .655-.295.655-.655v-7.504h1.802a.33.33 0 0 0 .241-.1.344.344 0 0 0 0-.482ZM1.613 9.744l.003-.003v.001l-.003.002Z" clip-rule="evenodd"/>
</svg>
