<svg xmlns="http://www.w3.org/2000/svg" width="20" height="20" fill="none" viewBox="0 0 20 20">
  <path fill="#425466" d="M14.94 5.115a.927.927 0 0 0-1.3 0 .902.902 0 0 0 0 1.285l2.721 2.69H5.097a.914.914 0 0 0-.92.91c0 .502.412.91.92.91H16.36l-2.72 2.69a.902.902 0 0 0 .297 1.482.925.925 0 0 0 1.002-.197l4.29-4.242a.902.902 0 0 0 0-1.286l-4.29-4.242Z"/>
  <path fill="#425466" d="M9.387 20c.508 0 .92-.407.92-.91a.914.914 0 0 0-.92-.908H2.34V1.818h7.048c.508 0 .92-.407.92-.909A.914.914 0 0 0 9.386 0H1.42A.914.914 0 0 0 .5.91v18.18c0 .503.412.91.92.91h7.967Z"/>
</svg>
