<svg xmlns="http://www.w3.org/2000/svg" width="20" height="20" fill="none" viewBox="0 0 20 20">
  <path fill="#425466" d="M11.715 2.38a.875.875 0 0 0-1.236 1.24 9.016 9.016 0 0 1 0 12.76.875.875 0 1 0 1.236 1.24c4.213-4.209 4.213-11.031 0-15.24Z"/>
  <path fill="#425466" d="M9.167 4.926A.875.875 0 1 0 7.93 6.164a5.42 5.42 0 0 1 0 7.671.875.875 0 1 0 1.237 1.238 7.17 7.17 0 0 0 0-10.147Z"/>
  <path fill="#425466" d="M6.618 7.472A.875.875 0 1 0 5.382 8.71a1.823 1.823 0 0 1 0 2.58.875.875 0 0 0 1.236 1.238 3.573 3.573 0 0 0 0-5.056Z"/>
  <path fill="#425466" fill-rule="evenodd" d="M0 3a3 3 0 0 1 3-3h14a3 3 0 0 1 3 3v14a3 3 0 0 1-3 3H3a3 3 0 0 1-3-3V3Zm3-1.7h14A1.7 1.7 0 0 1 18.7 3v14a1.7 1.7 0 0 1-1.7 1.7H3A1.7 1.7 0 0 1 1.3 17V3A1.7 1.7 0 0 1 3 1.3Z" clip-rule="evenodd"/>
</svg>
