<svg xmlns="http://www.w3.org/2000/svg" width="20" height="20" fill="none" viewBox="0 0 20 20">
  <path fill="#425466" d="M19.817.183a.625.625 0 0 0-.884 0l-1.132 1.133-.707-.707a.623.623 0 0 0-.474-.182l-6.61.34a.625.625 0 0 0-.41.182L.183 10.366a.625.625 0 0 0 0 .884l8.567 8.567a.625.625 0 0 0 .884 0l9.418-9.417a.625.625 0 0 0 .182-.41l.34-6.61a.626.626 0 0 0-.183-.474l-.706-.706 1.132-1.133a.625.625 0 0 0 0-.884Zm-1.506 3.41-.313 6.093-8.806 8.805-7.683-7.683 8.805-8.806 6.093-.312.51.51-1.292 1.291a2.118 2.118 0 1 0 .884.884l1.292-1.292.51.51ZM15.25 4.75a.868.868 0 1 1-1.227 1.228.868.868 0 0 1 1.227-1.228Zm-2.643 5.76a.625.625 0 1 1-.884.883L8.607 8.277a.625.625 0 1 1 .884-.883l3.116 3.115Zm-2.387 2.386a.625.625 0 1 1-.884.883l-3.115-3.115a.625.625 0 0 1 .884-.884l3.115 3.116Z"/>
</svg>
