<svg xmlns="http://www.w3.org/2000/svg" width="20" height="20" fill="none" viewBox="0 0 20 20">
  <path fill="#425466" d="M2.533 5.125c0-.344.281-.625.625-.625h1.865c.344 0 .626.281.626.625a.627.627 0 0 1-.626.625H3.158a.627.627 0 0 1-.625-.625Zm5.294 6.229c0-.344.281-.625.625-.625h3.116c.344 0 .626.281.626.625a.627.627 0 0 1-.626.625H8.452a.627.627 0 0 1-.625-.625Zm0 2.49c0-.344.281-.625.625-.625h3.116c.344 0 .626.281.626.625a.627.627 0 0 1-.626.625H8.452a.627.627 0 0 1-.625-.625Z"/>
  <path fill="#425466" fill-rule="evenodd" d="M3.5 2h13.027C18.5 2 20.01 3.125 20 4.98v4.666c.02 1.864-1.668 3.156-3.46 2.958v2.604c0 .99-.803 1.792-1.793 1.792H5.253c-.99 0-1.793-.802-1.793-1.792v-2.604C1.668 12.802-.01 11.5 0 9.646V4.979C-.01 3.115 1.5 2 3.5 2ZM1.25 4.969A1.71 1.71 0 0 1 2.96 3.26h14.1c.939 0 1.71.76 1.71 1.709v4.666c-.02 1.22-1.084 1.844-2.22 1.709V9.479h.313c.813 0 .813-1.24 0-1.24H3.158c-.813 0-.813 1.24 0 1.24h.313v1.865c-1.136.135-2.21-.49-2.22-1.709V4.97Zm14.05 4.52v2.49h-.01v3.23c0 .301-.24.541-.543.541H5.253a.538.538 0 0 1-.542-.542V9.49h10.588Z" clip-rule="evenodd"/>
</svg>
