<svg xmlns="http://www.w3.org/2000/svg" width="20" height="20" fill="none" viewBox="0 0 20 20">
  <path fill="#425466" fill-rule="evenodd" d="M0 17.354h1.5v-13.5h17v13.5H20v-13.5a1.5 1.5 0 0 0-1.5-1.5h-17a1.5 1.5 0 0 0-1.5 1.5v13.5Z" clip-rule="evenodd"/>
  <path fill="#425466" d="M2.8 9.299V5.407h1.612c.308 0 .572.053.79.158.22.104.386.251.5.443.116.19.174.413.174.67 0 .259-.058.481-.175.667a1.123 1.123 0 0 1-.51.426c-.22.099-.487.148-.801.148H3.31v-.661h.94c.165 0 .302-.021.411-.065A.483.483 0 0 0 4.905 7a.59.59 0 0 0 .081-.322.613.613 0 0 0-.081-.326.495.495 0 0 0-.246-.202 1.05 1.05 0 0 0-.413-.07h-.582v3.219H2.8Zm2.206-1.771 1.016 1.77h-.954l-.993-1.77h.931Zm3.5-1.002a.476.476 0 0 0-.205-.357c-.121-.085-.285-.127-.493-.127a.983.983 0 0 0-.357.057.502.502 0 0 0-.223.154.359.359 0 0 0-.076.224c-.003.07.012.13.046.182a.468.468 0 0 0 .141.135 1.1 1.1 0 0 0 .208.097c.078.027.162.05.251.069l.367.083c.178.038.342.089.49.152.15.064.279.142.388.234a.976.976 0 0 1 .347.758 1.04 1.04 0 0 1-.192.62 1.208 1.208 0 0 1-.542.404 2.28 2.28 0 0 1-.852.143c-.33 0-.617-.048-.862-.144a1.254 1.254 0 0 1-.57-.428 1.235 1.235 0 0 1-.214-.705h.836c.01.13.049.24.118.327.07.086.164.151.281.196.118.043.252.064.401.064.146 0 .273-.02.381-.06a.585.585 0 0 0 .253-.17.379.379 0 0 0 .09-.249.314.314 0 0 0-.082-.22.622.622 0 0 0-.235-.152 2.48 2.48 0 0 0-.377-.114l-.445-.107c-.344-.08-.616-.204-.816-.374-.2-.17-.298-.398-.297-.686a.986.986 0 0 1 .197-.617c.135-.177.319-.314.553-.413.234-.099.5-.148.798-.148.303 0 .568.05.794.148.227.099.404.236.53.413.127.176.192.38.196.611h-.828Zm1.81-1.119.987 2.957h.038l.99-2.957h.957L11.88 9.3h-1.113l-1.41-3.892h.959Zm3.408 3.892V5.407h1.612c.31 0 .574.057.792.17.218.11.384.266.498.465.116.198.174.426.174.684 0 .258-.059.486-.176.684a1.187 1.187 0 0 1-.508.462 1.78 1.78 0 0 1-.802.165h-1.028v-.66h.888a.909.909 0 0 0 .411-.08.556.556 0 0 0 .243-.23.693.693 0 0 0 .082-.341.675.675 0 0 0-.082-.338.535.535 0 0 0-.243-.226.927.927 0 0 0-.415-.082h-.582v3.219h-.864Z"/>
  <path fill="#425466" fill-rule="evenodd" d="M3.4 11.954c0-.22.18-.4.4-.4h12a.4.4 0 0 1 0 .8h-12a.4.4 0 0 1-.4-.4Zm0 2.5c0-.22.18-.4.4-.4h12a.4.4 0 0 1 0 .8h-12a.4.4 0 0 1-.4-.4Z" clip-rule="evenodd"/>
</svg>
