<svg xmlns="http://www.w3.org/2000/svg" width="20" height="20" fill="none" viewBox="0 0 20 20">
  <path fill="#425466" d="m19.71 18.333-4.733-4.658a8.24 8.24 0 0 0 1.967-5.332c0-4.6-3.8-8.343-8.472-8.343S0 3.742 0 8.343c0 4.6 3.8 8.343 8.472 8.343a8.58 8.58 0 0 0 5.075-1.666l4.773 4.695a.98.98 0 0 0 .694.285.983.983 0 0 0 .986-.977.957.957 0 0 0-.29-.69ZM8.466 14.689c-3.543 0-6.425-2.834-6.425-6.317s2.882-6.318 6.425-6.318c3.542 0 6.425 2.835 6.425 6.318 0 3.483-2.883 6.316-6.425 6.316Z"/>
</svg>
