<svg xmlns="http://www.w3.org/2000/svg" width="20" height="20" fill="none" viewBox="0 0 20 20">
  <path fill="#425466" d="m.137 13.271 2.043 3.46a1.037 1.037 0 0 0 1.395.365L5 16.29a8.289 8.289 0 0 0 1.935 1.112V19c0 .265.108.52.3.707.191.188.45.293.722.293h4.085c.271 0 .531-.105.723-.293a.99.99 0 0 0 .299-.707v-1.598A8.31 8.31 0 0 0 15 16.29l1.426.806c.488.275 1.115.11 1.396-.365l2.042-3.46a.985.985 0 0 0 .101-.758 1.007 1.007 0 0 0-.473-.608l-1.402-.793a7.522 7.522 0 0 0-.002-2.224l1.401-.793a.99.99 0 0 0 .373-1.366l-2.042-3.46a1.019 1.019 0 0 0-.62-.465 1.04 1.04 0 0 0-.776.1l-1.426.806a8.247 8.247 0 0 0-1.934-1.112V1a.99.99 0 0 0-.3-.707A1.032 1.032 0 0 0 12.043 0H7.957c-.271 0-.531.105-.723.293A.99.99 0 0 0 6.935 1v1.598A8.31 8.31 0 0 0 5 3.71l-1.425-.806a1.035 1.035 0 0 0-1.395.365L.137 6.729a.986.986 0 0 0-.101.758c.07.256.24.474.474.608l1.4.793a7.523 7.523 0 0 0 0 2.224l-1.4.793a.99.99 0 0 0-.373 1.366ZM10 6c2.253 0 4.085 1.794 4.085 4S12.253 14 10 14c-2.254 0-4.086-1.794-4.086-4S7.746 6 10 6Z"/>
</svg>
