<svg xmlns="http://www.w3.org/2000/svg" width="20" height="20" fill="none" viewBox="0 0 20 20">
  <path fill="#425466" d="M11.887 20H8.113c-.451 0-.882-.174-1.2-.492a1.72 1.72 0 0 1-.503-1.2v-.975a7.367 7.367 0 0 1-1.066-.615l-.882.503c-.39.225-.852.276-1.293.164a1.663 1.663 0 0 1-1.035-.78l-1.898-3.19a1.613 1.613 0 0 1-.174-1.282c.123-.44.4-.81.8-1.036l.851-.482c-.03-.4-.03-.81 0-1.22l-.851-.482a1.68 1.68 0 0 1-.626-2.318l1.887-3.2a1.692 1.692 0 0 1 1.046-.78 1.59 1.59 0 0 1 .657-.04c.225.03.43.102.625.204l.883.503c.338-.226.697-.43 1.066-.615v-.975c0-.451.185-.892.513-1.2A1.691 1.691 0 0 1 8.113 0h3.774c.451 0 .882.174 1.21.492.318.318.503.749.503 1.2v.975c.37.174.728.38 1.066.615l.883-.503c.4-.225.85-.276 1.292-.164.44.113.81.39 1.036.78l1.887 3.19c.225.39.297.84.174 1.282-.113.44-.4.81-.8 1.036l-.851.482c.03.4.03.81 0 1.21l.851.482c.4.226.677.595.8 1.026.123.44.062.902-.174 1.292l-1.887 3.2a1.725 1.725 0 0 1-2.328.615l-.893-.502c-.338.225-.697.43-1.066.615v.974a1.7 1.7 0 0 1-1.713 1.693l.01.01Zm-6.43-5.118.4.308c.492.38 1.025.687 1.61.923l.482.195v1.99s.02.071.04.102c.032.03.083.051.134.051h3.774s.093-.02.134-.051a.132.132 0 0 0 .04-.103v-1.99l.483-.194a6.973 6.973 0 0 0 1.61-.923l.4-.308 1.764.995c.082.051.205.02.246-.062l1.887-3.19s.02-.071.01-.102a.146.146 0 0 0-.082-.092l-1.753-.995.082-.523a6.053 6.053 0 0 0 0-1.826l-.082-.523 1.753-.995s.072-.061.072-.092c0-.02 0-.062-.01-.103l-1.887-3.2s-.062-.061-.103-.082c-.04 0-.102 0-.143.02l-1.764.996-.4-.308a6.768 6.768 0 0 0-1.61-.923l-.483-.195v-1.99s-.02-.071-.04-.102a.195.195 0 0 0-.134-.052H8.113s-.092.021-.123.052a.132.132 0 0 0-.041.102v1.99l-.482.195a6.974 6.974 0 0 0-1.61.923l-.4.308-1.754-.995c-.082-.02-.195-.01-.246.061L1.57 7.364s-.021.072-.01.103c.01.04.04.071.081.092l1.754.995-.082.523a6.053 6.053 0 0 0 0 1.826l.082.523-1.754.995s-.071.061-.071.092c0 .04 0 .072.01.102l1.887 3.19c.02.041.061.062.102.072.052.01.103 0 .144-.02l1.764-.995-.02.02Zm4.543-.42c-2.502 0-4.543-2-4.543-4.462 0-2.462 2.04-4.462 4.543-4.462 2.502 0 4.543 2 4.543 4.462 0 2.461-2.04 4.461-4.543 4.461Zm0-7.385C8.349 7.077 6.995 8.39 6.995 10S8.339 12.923 10 12.923c1.662 0 3.005-1.313 3.005-2.923S11.661 7.077 10 7.077Z"/>
</svg>
