<svg xmlns="http://www.w3.org/2000/svg" width="20" height="20" fill="none" viewBox="0 0 20 20">
  <path fill="#425466" d="m16.739 19-5.235-4.43h-7.2C1.931 14.57 0 12.532 0 10.031V5.537C0 3.036 1.931 1 4.304 1h11.392C18.069 1 20 3.036 20 5.537v4.495c0 2.105-1.368 3.903-3.261 4.4V19ZM4.304 2.29C2.62 2.29 1.25 3.747 1.25 5.537v4.495c0 1.79 1.37 3.248 3.054 3.248h7.647l3.538 2.994v-2.95l.552-.067c1.544-.188 2.709-1.574 2.709-3.225V5.537c0-1.79-1.37-3.247-3.054-3.247H4.304Z"/>
  <path fill="#425466" d="M3.563 8.548c.222.14.684.304 1.043.304.366 0 .517-.131.517-.337 0-.206-.12-.304-.573-.46-.804-.28-1.115-.73-1.107-1.208 0-.747.621-1.314 1.585-1.314.454 0 .86.107 1.099.23l-.215.863a1.863 1.863 0 0 0-.844-.23c-.295 0-.462.123-.462.328 0 .189.151.288.629.46.74.263 1.051.65 1.059 1.24 0 .748-.573 1.298-1.688 1.298-.51 0-.964-.114-1.258-.278l.215-.896Zm3.463-1.643c0-.5-.016-.928-.032-1.282h1.02l.055.542h.024c.167-.254.51-.632 1.178-.632.502 0 .9.263 1.067.682h.016a1.76 1.76 0 0 1 .502-.485c.215-.131.454-.197.74-.197.749 0 1.315.542 1.315 1.741v2.367h-1.179V7.456c0-.584-.183-.92-.573-.92-.279 0-.478.196-.558.435-.032.09-.047.221-.047.32v2.35H9.375V7.39c0-.51-.175-.855-.558-.855-.31 0-.494.247-.565.452a.853.853 0 0 0-.048.313v2.34H7.026V6.906Zm6.839 1.643c.223.14.685.304 1.043.304.366 0 .517-.131.517-.337 0-.206-.12-.304-.573-.46-.804-.28-1.115-.73-1.107-1.208 0-.747.622-1.314 1.585-1.314.454 0 .86.107 1.099.23l-.215.863a1.863 1.863 0 0 0-.844-.23c-.295 0-.462.123-.462.328 0 .189.151.288.63.46.74.263 1.05.65 1.058 1.24 0 .748-.573 1.298-1.688 1.298-.51 0-.964-.114-1.258-.278l.215-.896Z"/>
</svg>
