<svg xmlns="http://www.w3.org/2000/svg" width="20" height="20" fill="none" viewBox="0 0 20 20">
  <g clip-path="url(#a)">
    <path fill="#425466" d="M8 4a1 1 0 0 1 1-1h2a1 1 0 0 1 1 1v12a1 1 0 0 1-1 1H9a1 1 0 0 1-1-1V4Zm-5 6a1 1 0 0 1 1-1h2a1 1 0 0 1 1 1v6a1 1 0 0 1-1 1H4a1 1 0 0 1-1-1v-6Zm11 1a1 1 0 0 0-1 1v4a1 1 0 0 0 1 1h2a1 1 0 0 0 1-1v-4a1 1 0 0 0-1-1h-2Z"/>
    <path fill="#425466" fill-rule="evenodd" d="M0 3a3 3 0 0 1 3-3h14a3 3 0 0 1 3 3v14a3 3 0 0 1-3 3H3a3 3 0 0 1-3-3V3Zm3-1.7h14A1.7 1.7 0 0 1 18.7 3v14a1.7 1.7 0 0 1-1.7 1.7H3A1.7 1.7 0 0 1 1.3 17V3A1.7 1.7 0 0 1 3 1.3Z" clip-rule="evenodd"/>
  </g>
  <defs>
    <clipPath id="a">
      <rect width="20" height="20" fill="#fff" rx="3"/>
    </clipPath>
  </defs>
</svg>
