<svg xmlns="http://www.w3.org/2000/svg" width="20" height="20" fill="none" viewBox="0 0 20 20">
  <g clip-path="url(#a)">
    <path fill="#425466" fill-rule="evenodd" d="M7.608.874a5.22 5.22 0 0 1 6.573.645 5.178 5.178 0 0 1-1.689 8.46A5.224 5.224 0 0 1 6.82 8.856a5.17 5.17 0 0 1-1.13-5.654A5.191 5.191 0 0 1 7.608.874ZM8.62 7.988a3.39 3.39 0 0 0 4.27-.419 3.363 3.363 0 0 0-1.097-5.494 3.393 3.393 0 0 0-3.685.73 3.365 3.365 0 0 0-.733 3.671c.256.616.69 1.142 1.245 1.512Z" clip-rule="evenodd"/>
    <path fill="#425466" d="M20 19.09V20h-1.825v-.91c0-1.46-.582-2.86-1.619-3.894a5.539 5.539 0 0 0-3.91-1.613H8.354c-1.466 0-2.872.58-3.909 1.613a5.498 5.498 0 0 0-1.62 3.895V20H1v-.91c0-1.942.775-3.806 2.154-5.18a7.367 7.367 0 0 1 5.2-2.145h4.293c1.95 0 3.82.772 5.2 2.146A7.313 7.313 0 0 1 20 19.09Z"/>
  </g>
  <defs>
    <clipPath id="a">
      <path fill="#fff" d="M0 0h20v20H0z"/>
    </clipPath>
  </defs>
</svg>
